<svg width="100" height="142" viewBox="0 0 100 142" fill="none" xmlns="http://www.w3.org/2000/svg">
<mask id="path-1-inside-1_518_48" fill="white">
<path d="M0 0H100V21H0V0Z"/>
<path d="M0 121H100V142H0V121Z"/>
<path d="M100 71C100 98.6142 77.6142 121 50 121C22.3858 121 0 98.6142 0 71C0 43.3858 22.3858 21 50 21C77.6142 21 100 43.3858 100 71Z"/>
</mask>
<path d="M0 0V-20H-20V0H0ZM100 0H120V-20H100V0ZM100 21V41H120V21H100ZM0 21H-20V41H0V21ZM0 121V101H-20V121H0ZM100 121H120V101H100V121ZM100 142V162H120V142H100ZM0 142H-20V162H0V142ZM0 20H100V-20H0V20ZM80 0V21H120V0H80ZM100 1H0V41H100V1ZM20 21V0H-20V21H20ZM0 141H100V101H0V141ZM80 121V142H120V121H80ZM100 122H0V162H100V122ZM20 142V121H-20V142H20ZM80 71C80 87.5685 66.5685 101 50 101V141C88.6599 141 120 109.66 120 71H80ZM50 101C33.4315 101 20 87.5685 20 71H-20C-20 109.66 11.3401 141 50 141V101ZM20 71C20 54.4315 33.4315 41 50 41V1C11.3401 1 -20 32.3401 -20 71H20ZM50 41C66.5685 41 80 54.4315 80 71H120C120 32.3401 88.6599 1 50 1V41Z" fill="black" mask="url(#path-1-inside-1_518_48)"/>
</svg>
