<svg width="32" height="32" viewBox="0 0 32 32" fill="none" xmlns="http://www.w3.org/2000/svg">
<mask id="path-1-inside-1_520_44" fill="white">
<path d="M5 0H27.5352V4.73239H5V0Z"/>
<path d="M5 27.2676H27.5352V32H5V27.2676Z"/>
<path d="M27.5352 16C27.5352 22.2229 22.4905 27.2676 16.2676 27.2676C10.0447 27.2676 5 22.2229 5 16C5 9.77707 10.0447 4.73239 16.2676 4.73239C22.4905 4.73239 27.5352 9.77707 27.5352 16Z"/>
</mask>
<path d="M5 0V-4.4H0.6V0H5ZM27.5352 0H31.9352V-4.4H27.5352V0ZM27.5352 4.73239V9.13239H31.9352V4.73239H27.5352ZM5 4.73239H0.6V9.13239H5V4.73239ZM5 27.2676V22.8676H0.6V27.2676H5ZM27.5352 27.2676H31.9352V22.8676H27.5352V27.2676ZM27.5352 32V36.4H31.9352V32H27.5352ZM5 32H0.6V36.4H5V32ZM5 4.4H27.5352V-4.4H5V4.4ZM23.1352 0V4.73239H31.9352V0H23.1352ZM27.5352 0.332394H5V9.13239H27.5352V0.332394ZM9.4 4.73239V0H0.6V4.73239H9.4ZM5 31.6676H27.5352V22.8676H5V31.6676ZM23.1352 27.2676V32H31.9352V27.2676H23.1352ZM27.5352 27.6H5V36.4H27.5352V27.6ZM9.4 32V27.2676H0.6V32H9.4ZM23.1352 16C23.1352 19.7929 20.0605 22.8676 16.2676 22.8676V31.6676C24.9206 31.6676 31.9352 24.653 31.9352 16H23.1352ZM16.2676 22.8676C12.4747 22.8676 9.4 19.7929 9.4 16H0.6C0.6 24.653 7.61463 31.6676 16.2676 31.6676V22.8676ZM9.4 16C9.4 12.2071 12.4747 9.13239 16.2676 9.13239V0.332394C7.61463 0.332394 0.6 7.34702 0.6 16H9.4ZM16.2676 9.13239C20.0605 9.13239 23.1352 12.2071 23.1352 16H31.9352C31.9352 7.34702 24.9206 0.332394 16.2676 0.332394V9.13239Z" fill="black" mask="url(#path-1-inside-1_520_44)"/>
</svg>
