<svg width="43" height="51" viewBox="0 0 43 51" fill="none" xmlns="http://www.w3.org/2000/svg">
<path d="M19.3701 41.1587C19.3701 41.1587 13.3981 48.9848 8.98701 48.9848C4.57591 48.9848 1 45.4809 1 41.1587C1 36.8365 4.57591 33.3326 8.98701 33.3326C13.3981 33.3326 19.3701 41.1587 19.3701 41.1587Z" stroke="black" stroke-width="1.5974"/>
<path d="M23.6299 41.6804C23.6299 41.6804 29.6019 33.8543 34.013 33.8543C38.4241 33.8543 42 37.3581 42 41.6804C42 46.0026 38.4241 49.5065 34.013 49.5065C29.6019 49.5065 23.6299 41.6804 23.6299 41.6804Z" stroke="black" stroke-width="1.5974"/>
<path d="M32.4156 23.4195C32.4156 29.1825 21.7662 37.7674 21.7662 37.7674C21.7662 37.7674 11.1169 29.1825 11.1169 23.4195C11.1169 17.6566 15.8848 12.9847 21.7662 12.9847C27.6477 12.9847 32.4156 17.6566 32.4156 23.4195Z" stroke="black" stroke-width="1.5974"/>
<path d="M26.026 5.68039C26.026 7.98558 24.1188 9.85431 21.7662 9.85431C19.4136 9.85431 17.5065 7.98558 17.5065 5.68039C17.5065 3.3752 19.4136 1.50647 21.7662 1.50647C24.1188 1.50647 26.026 3.3752 26.026 5.68039Z" stroke="black" stroke-width="1.5974"/>
</svg>
